<?xml version="1.0" standalone="no"?>
<!DOCTYPE svg PUBLIC "-//W3C//DTD SVG 20010904//EN"
 "http://www.w3.org/TR/2001/REC-SVG-20010904/DTD/svg10.dtd">
<svg version="1.0" xmlns="http://www.w3.org/2000/svg"
 width="2557.000000pt" height="2557.000000pt" viewBox="0 0 2557.000000 2557.000000"
 preserveAspectRatio="xMidYMid meet">
<metadata>
Created by potrace 1.14, written by Peter Selinger 2001-2017
</metadata>
<g transform="translate(0.000000,2557.000000) scale(0.100000,-0.100000)"
fill="#000000" stroke="none">
<path d="M12580 25497 l-125 -62 2 -155 c1 -85 4 -227 7 -314 3 -100 2 -164
-4 -172 -8 -9 -26 -9 -79 1 -168 32 -358 36 -511 10 -152 -27 -316 -91 -454
-180 -53 -34 -59 -35 -173 -39 -126 -5 -215 -28 -338 -86 -77 -37 -209 -125
-308 -207 -63 -52 -81 -62 -92 -53 -8 7 -40 60 -71 118 -99 186 -136 255 -179
332 -22 41 -52 96 -65 122 -14 26 -29 50 -35 52 -6 2 -33 0 -60 -4 -28 -4 -79
-11 -115 -15 -89 -10 -102 -13 -110 -25 -4 -6 -17 -57 -29 -113 -13 -56 -36
-156 -51 -222 -16 -66 -31 -131 -34 -145 -9 -50 -76 -346 -87 -385 -9 -37 -15
-43 -69 -63 -197 -77 -347 -248 -424 -488 -44 -135 -55 -237 -51 -464 2 -113
6 -214 8 -225 3 -11 8 -56 12 -100 4 -44 9 -98 11 -120 22 -238 22 -541 -1
-805 -9 -107 -16 -176 -20 -190 -2 -8 -6 -37 -10 -65 -7 -56 -11 -85 -25 -165
-19 -104 -21 -115 -41 -205 -11 -49 -22 -98 -24 -109 -26 -120 -108 -398 -177
-601 -211 -626 -545 -1327 -972 -2043 -50 -84 -96 -161 -101 -171 -37 -66
-261 -421 -415 -657 -52 -80 -99 -153 -105 -162 -15 -25 -140 -214 -620 -937
-492 -739 -641 -956 -1320 -1915 -165 -232 -267 -377 -310 -440 -29 -41 -105
-151 -170 -245 -164 -236 -479 -706 -609 -910 -60 -93 -123 -192 -141 -220
-88 -137 -445 -739 -445 -751 0 -2 -10 -21 -23 -42 -22 -34 -47 -81 -175 -322
-55 -103 -261 -515 -292 -585 -13 -27 -36 -79 -53 -115 -112 -244 -333 -806
-351 -895 -2 -5 -19 -62 -39 -125 -35 -112 -95 -322 -102 -357 -2 -10 -11 -49
-20 -88 -9 -38 -19 -79 -21 -90 -1 -11 -12 -67 -24 -125 -12 -58 -23 -116 -25
-130 -2 -14 -6 -38 -9 -55 -11 -63 -25 -162 -31 -222 -4 -35 -9 -75 -11 -90
-19 -159 -26 -733 -11 -893 13 -124 17 -163 22 -200 3 -19 7 -55 10 -80 3 -25
10 -70 15 -100 5 -30 12 -73 16 -95 7 -51 47 -237 73 -340 163 -660 481 -1340
891 -1908 47 -66 90 -126 95 -135 20 -32 263 -328 325 -396 188 -208 467 -484
592 -586 18 -14 61 -50 97 -81 54 -46 196 -156 371 -287 81 -61 395 -263 507
-327 10 -6 61 -35 113 -66 52 -31 122 -71 155 -89 100 -55 136 -76 228 -129
49 -28 90 -51 92 -51 2 0 74 -41 160 -90 86 -50 159 -90 161 -90 3 0 21 -11
42 -24 20 -13 102 -63 182 -112 183 -111 694 -450 864 -574 71 -51 175 -131
230 -178 115 -96 316 -296 342 -342 10 -16 21 -30 25 -30 10 0 131 -184 165
-250 42 -83 87 -150 138 -207 35 -39 46 -59 47 -84 0 -33 14 -88 78 -319 41
-149 98 -245 211 -359 66 -67 102 -95 160 -123 195 -94 439 -128 760 -105 182
13 277 41 324 98 34 40 50 126 42 232 -11 161 -52 276 -152 428 -38 57 -71
109 -73 114 -2 6 -7 12 -11 15 -12 9 -104 171 -139 245 -31 65 -88 210 -96
245 -2 8 -11 40 -20 70 -19 64 -16 54 -48 200 -24 109 -33 156 -42 225 -4 31
-15 97 -20 126 -2 9 -6 34 -9 55 -4 22 -13 75 -21 119 -8 44 -16 92 -19 108
-3 15 -7 35 -10 45 -3 9 -7 33 -10 52 -9 57 -15 85 -46 213 -33 143 -60 270
-65 312 -10 74 -18 131 -20 145 -2 8 -6 49 -10 90 -3 41 -8 86 -10 100 -2 14
-7 66 -10 115 -4 50 -8 110 -10 135 -2 25 -7 104 -10 175 -3 72 -8 157 -10
190 -21 311 -21 964 0 1170 2 22 7 76 10 120 6 83 12 158 20 235 2 25 7 77 10
115 7 87 30 144 59 147 70 5 103 2 216 -18 218 -40 334 -77 515 -164 411 -199
701 -532 855 -980 54 -157 70 -276 74 -541 4 -248 6 -281 27 -356 14 -50 49
-87 76 -79 39 13 81 130 98 271 3 28 7 61 10 75 10 59 18 217 19 385 1 240
-11 338 -65 531 -165 587 -624 1068 -1303 1363 -113 49 -345 131 -412 145 -59
13 -65 28 -66 182 0 77 2 189 6 249 11 199 16 307 21 545 6 267 12 399 20 456
11 77 35 200 45 234 6 19 13 42 15 50 33 146 133 487 191 655 192 554 245 727
299 975 18 85 36 171 39 190 9 55 16 90 31 158 8 34 17 76 20 92 3 16 12 58
20 92 8 35 16 74 18 88 3 14 19 90 36 170 16 80 32 156 35 170 2 14 14 70 26
125 12 55 24 111 27 125 2 14 11 54 19 90 8 35 17 82 19 105 2 22 40 147 84
279 68 203 141 438 156 503 2 10 18 68 35 128 30 109 56 201 120 443 18 68 39
130 47 137 11 12 28 9 107 -20 114 -41 275 -96 296 -100 8 -2 44 -12 80 -23
143 -43 155 -45 208 -32 l49 13 74 -51 c40 -29 74 -58 75 -64 1 -7 7 -42 14
-78 7 -36 14 -78 17 -95 2 -16 16 -75 29 -130 14 -55 27 -110 30 -122 2 -12 9
-35 15 -50 6 -16 10 -28 9 -28 -7 0 95 -329 110 -357 6 -10 10 -23 10 -28 0
-20 160 -438 250 -653 113 -272 161 -382 305 -707 65 -146 155 -357 202 -470
46 -113 88 -214 93 -225 5 -11 57 -139 116 -285 58 -146 112 -278 119 -295 7
-16 29 -70 50 -120 21 -49 45 -108 55 -130 10 -22 32 -73 50 -114 17 -40 48
-108 67 -150 41 -88 118 -274 143 -346 10 -27 52 -149 94 -269 47 -136 91
-242 114 -280 21 -34 66 -119 101 -191 96 -196 150 -271 338 -465 103 -107
118 -123 187 -200 159 -181 406 -533 623 -890 140 -232 250 -418 441 -751 46
-79 87 -151 92 -159 11 -17 82 -145 143 -260 22 -41 50 -93 62 -115 31 -54
226 -443 264 -527 17 -38 44 -97 61 -133 16 -35 41 -92 55 -126 15 -34 49
-109 77 -168 86 -182 122 -293 148 -461 6 -41 13 -86 16 -100 27 -165 26 -897
-1 -1115 -27 -223 -70 -371 -154 -545 -31 -64 -76 -192 -86 -247 -6 -35 -7
-181 -2 -208 41 -183 137 -294 277 -320 61 -12 111 -9 235 15 28 5 66 11 85
14 115 17 301 55 403 81 9 3 25 7 35 9 102 24 325 132 374 181 20 20 38 45 41
56 8 29 2 143 -11 219 -6 36 -14 101 -17 145 -8 123 -15 184 -32 264 -14 70
-17 187 -8 256 16 120 18 157 16 470 0 94 3 193 6 220 4 28 7 124 7 215 0 183
-18 289 -83 488 -34 103 -90 238 -138 325 -43 80 -233 463 -233 470 0 12 -112
208 -169 297 -38 58 -86 148 -108 200 -43 101 -243 562 -313 720 -23 52 -47
109 -55 125 -7 17 -23 53 -35 80 -13 28 -29 66 -37 85 -14 33 -41 93 -156 350
-58 130 -216 449 -275 555 -21 39 -56 102 -77 140 -21 39 -70 122 -108 185
-38 63 -77 127 -86 142 -76 126 -364 563 -382 578 -14 12 -182 275 -236 370
-219 382 -306 633 -387 1110 -18 105 -23 140 -31 210 -3 30 -8 62 -10 70 -2 8
-7 44 -10 80 -4 36 -8 76 -10 90 -2 14 -6 54 -10 90 -7 70 -11 101 -19 170 -3
25 -8 68 -11 95 -10 94 -25 220 -29 245 -3 14 -7 48 -10 75 -4 28 -8 61 -11
75 -2 14 -6 45 -9 70 -3 25 -10 83 -16 130 -5 47 -12 108 -15 135 -4 28 -8 61
-10 75 -3 14 -8 52 -11 85 -4 33 -8 62 -9 65 -2 3 -7 33 -10 65 -4 33 -9 63
-11 66 -2 4 -6 24 -10 45 -15 98 -48 233 -74 298 -15 39 -31 96 -34 126 -13
111 -32 207 -70 355 -33 127 -46 169 -141 483 -45 150 -49 182 -23 182 12 0
58 -61 58 -76 0 -3 10 -19 21 -36 12 -16 31 -48 44 -71 12 -23 32 -58 44 -77
11 -19 24 -42 28 -50 4 -8 26 -48 50 -88 24 -41 43 -75 43 -77 0 -7 114 -192
177 -286 92 -139 92 -139 150 -128 26 5 59 11 73 14 168 30 250 60 268 98 52
108 -48 353 -313 767 -138 216 -146 244 -80 276 46 21 58 44 45 81 -23 63 -59
123 -131 219 -55 74 -83 122 -103 180 -40 113 -129 296 -235 482 -50 89 -91
166 -91 172 0 6 15 17 34 25 19 8 41 24 48 34 18 26 55 40 93 35 40 -5 216 50
281 87 56 32 113 89 139 140 17 31 17 32 -38 138 -30 58 -80 167 -110 241 -58
143 -152 372 -167 405 -5 11 -38 101 -74 200 -134 373 -173 464 -273 625 -68
111 -127 269 -147 395 -14 88 -17 134 -21 280 -3 88 -7 172 -10 188 -3 15 -7
37 -9 50 -5 23 -31 103 -67 202 -30 83 -28 166 6 290 36 133 62 207 97 280 31
64 67 150 74 175 2 8 10 40 18 70 8 30 17 73 21 95 3 22 7 47 10 55 2 8 6 33
10 55 3 22 7 47 10 55 2 8 6 31 9 50 9 61 46 168 90 263 44 92 80 219 90 312
6 56 13 127 21 230 14 160 59 308 131 428 18 32 34 61 34 63 0 10 102 156 149
212 192 230 428 370 711 418 14 3 63 12 110 20 47 9 99 18 115 21 17 2 119 22
228 44 135 27 226 40 284 40 47 0 86 -1 88 -3 2 -2 45 -68 96 -148 152 -239
170 -271 369 -655 45 -88 90 -173 100 -190 9 -16 43 -79 75 -140 52 -97 431
-794 482 -885 24 -42 141 -258 191 -350 19 -36 45 -83 57 -105 12 -22 48 -89
81 -150 32 -60 77 -146 101 -190 60 -111 379 -749 435 -870 26 -55 60 -129 76
-165 16 -36 38 -85 50 -110 170 -373 403 -993 497 -1320 49 -172 69 -247 91
-335 31 -128 62 -263 68 -295 4 -23 19 -99 31 -160 4 -22 16 -87 30 -167 3
-16 7 -48 11 -73 3 -25 9 -70 14 -100 8 -52 12 -80 25 -197 3 -27 8 -61 10
-78 2 -16 7 -70 10 -120 4 -49 9 -106 11 -125 26 -247 25 -1048 -1 -1330 -1
-19 -6 -73 -9 -120 -8 -98 -15 -166 -22 -230 -3 -25 -7 -58 -9 -75 -8 -93 -51
-424 -70 -535 -2 -14 -9 -54 -15 -90 -26 -167 -60 -343 -145 -755 -6 -29 -51
-222 -79 -340 -27 -113 -113 -442 -145 -555 -12 -41 -23 -82 -26 -90 -26 -95
-51 -181 -75 -260 -16 -52 -41 -135 -55 -185 -15 -49 -44 -146 -65 -215 -40
-131 -98 -326 -156 -521 -61 -211 -165 -597 -179 -667 -2 -9 -10 -45 -19 -79
-14 -55 -24 -100 -42 -193 -3 -14 -9 -41 -14 -60 -5 -20 -12 -51 -14 -70 -3
-19 -14 -82 -25 -140 -11 -58 -23 -127 -27 -155 -3 -27 -8 -59 -10 -69 -6 -33
-23 -168 -29 -231 -3 -33 -8 -76 -10 -95 -25 -203 -25 -779 0 -920 3 -14 7
-47 11 -75 40 -345 171 -779 328 -1095 46 -92 129 -235 146 -250 3 -3 24 -30
47 -61 104 -141 277 -278 327 -259 57 20 54 161 -8 370 -3 8 -14 47 -26 85
-24 81 -19 60 -63 245 -19 80 -38 163 -41 185 -3 22 -8 51 -10 64 -3 14 -10
61 -16 105 -6 45 -13 92 -15 106 -21 148 -35 623 -21 760 2 19 7 82 11 139 4
57 8 111 10 120 1 9 6 43 9 76 4 33 9 71 11 85 2 14 7 42 10 63 13 89 18 119
41 232 14 66 28 131 30 144 24 120 104 373 176 556 41 103 49 122 102 240 55
123 228 469 250 500 11 17 20 31 18 33 -2 1 17 39 42 85 271 498 410 793 673
1422 101 242 212 553 213 596 0 21 36 53 50 44 11 -7 9 -231 -5 -650 -3 -77
-7 -219 -10 -315 -3 -96 -7 -218 -10 -270 -2 -52 -7 -149 -10 -215 -3 -66 -8
-147 -10 -180 -22 -309 -32 -446 -40 -508 -2 -15 -7 -62 -10 -105 -4 -42 -9
-85 -10 -94 -2 -9 -6 -45 -10 -80 -3 -35 -8 -74 -10 -88 -2 -14 -7 -45 -10
-70 -3 -25 -8 -56 -10 -70 -3 -21 -32 -202 -39 -250 -4 -21 -18 -101 -22 -125
-2 -11 -11 -60 -20 -110 -8 -49 -17 -92 -19 -96 -3 -3 -7 -28 -10 -53 -3 -26
-10 -58 -15 -72 -6 -13 -9 -28 -8 -32 1 -4 -1 -20 -5 -37 -4 -16 -9 -39 -11
-50 -3 -11 -14 -64 -26 -119 -12 -54 -23 -106 -25 -115 -2 -9 -10 -46 -19 -84
-9 -37 -18 -81 -21 -99 -3 -17 -8 -34 -10 -38 -2 -3 -6 -17 -9 -31 -2 -13 -21
-91 -41 -174 -20 -82 -38 -157 -40 -165 -2 -8 -13 -53 -25 -100 -12 -47 -23
-92 -25 -100 -8 -33 -79 -307 -136 -521 -33 -125 -62 -235 -64 -245 -4 -16
-14 -56 -30 -114 -9 -34 -84 -357 -89 -380 -2 -14 -16 -83 -29 -155 -31 -160
-47 -259 -62 -400 -4 -33 -9 -71 -11 -85 -21 -134 -21 -623 0 -725 2 -11 7
-47 11 -80 10 -83 13 -100 15 -100 1 0 3 -11 5 -25 4 -45 56 -243 86 -328 85
-245 204 -469 336 -631 83 -103 228 -252 278 -286 109 -75 191 -41 137 57 -58
105 -152 343 -192 488 -24 83 -60 260 -66 319 -2 25 -7 57 -10 71 -9 40 -12
396 -3 453 4 29 10 75 13 102 8 69 52 290 70 350 2 6 4 15 6 20 1 6 6 18 12
28 5 10 11 26 13 35 14 71 137 329 230 482 67 112 209 317 236 340 3 3 18 23
35 45 36 49 44 58 189 225 153 176 268 300 589 634 32 33 172 177 310 320 318
328 282 290 421 441 474 515 779 934 1000 1370 44 88 91 185 104 215 13 30 35
78 48 107 12 28 23 55 23 58 0 3 8 25 19 48 50 114 172 471 216 637 7 28 57
225 60 240 2 8 15 65 28 125 14 61 28 127 31 147 3 21 10 57 15 80 5 24 12 66
16 93 7 50 9 61 19 125 10 66 37 285 42 345 3 33 7 80 9 105 16 187 20 307 20
605 0 299 -7 546 -19 640 -2 17 -7 70 -11 119 -4 49 -8 96 -10 105 -1 9 -6 48
-9 86 -4 39 -14 115 -21 170 -8 55 -17 120 -20 145 -3 25 -7 56 -10 70 -3 14
-7 41 -10 60 -7 42 -42 243 -50 285 -92 497 -262 1123 -457 1685 -65 188 -236
643 -271 721 -8 19 -31 75 -52 124 -21 50 -45 108 -55 130 -10 22 -40 92 -68
155 -27 63 -71 159 -96 213 -25 55 -46 101 -46 103 0 16 -329 667 -425 839
-18 33 -45 83 -60 110 -60 108 -237 415 -275 475 -5 8 -55 89 -111 180 -90
145 -418 648 -441 675 -5 5 -50 69 -101 140 -50 72 -95 135 -99 140 -4 6 -79
105 -166 220 -137 183 -312 407 -378 485 -12 14 -75 88 -139 165 -65 77 -144
169 -176 205 -31 36 -67 76 -79 90 -38 44 -136 154 -176 196 -22 23 -85 90
-141 150 -55 60 -195 204 -310 320 -169 172 -483 498 -528 548 -12 14 -204
223 -265 290 -25 27 -49 54 -55 60 -55 62 -171 192 -175 196 -6 6 -148 165
-186 209 -39 45 -55 63 -150 167 -45 49 -93 103 -108 121 -33 40 -44 87 -23
107 30 30 60 89 72 140 21 92 -7 182 -120 381 -25 44 -55 112 -67 150 -12 39
-31 78 -42 88 -46 40 -117 96 -162 127 -407 278 -860 604 -1047 753 -80 63
-158 155 -212 249 -5 9 -30 49 -55 88 -25 39 -52 84 -61 98 -9 15 -82 133
-161 262 -124 201 -402 666 -459 767 -10 17 -29 49 -42 70 -13 21 -35 58 -49
83 -14 25 -50 89 -81 143 -32 53 -82 141 -114 195 -31 53 -66 115 -78 137 -12
22 -53 96 -92 165 -38 69 -101 181 -138 250 -103 189 -239 411 -257 418 -4 2
-8 8 -8 13 0 27 -184 198 -213 199 -5 0 -21 8 -35 19 -64 45 -200 60 -287 31
-21 -7 -63 -28 -94 -46 l-55 -33 -46 26 c-25 14 -74 45 -110 69 -229 148 -597
374 -610 374 -8 -1 -71 -29 -140 -63z m440 -474 c63 -45 125 -89 138 -98 13
-9 22 -23 20 -30 -2 -7 -61 -73 -131 -147 l-129 -135 -66 14 c-36 7 -70 19
-74 26 -4 7 -8 30 -9 52 -1 44 -3 106 -14 329 -5 115 -4 150 6 157 13 8 25 -1
259 -168z m-2884 -760 c15 -32 47 -98 71 -148 24 -49 42 -96 41 -103 -4 -20
-188 -64 -205 -50 -12 9 -11 24 2 133 2 16 7 59 11 95 4 36 8 72 9 80 2 8 4
23 4 33 1 10 9 17 20 17 14 0 27 -17 47 -57z m3196 -2225 c8 -13 20 -52 27
-88 28 -137 30 -148 78 -310 49 -167 74 -220 104 -220 32 0 50 42 54 127 2 43
6 89 9 103 3 14 9 52 12 85 7 72 21 86 77 78 108 -13 338 -2 432 21 98 24 137
29 145 17 4 -7 -8 -60 -28 -119 -31 -96 -44 -139 -57 -195 -2 -9 -6 -21 -9
-25 -3 -5 -7 -22 -10 -38 -3 -16 -10 -53 -16 -83 -5 -29 -10 -73 -10 -97 0
-52 4 -53 126 -58 105 -5 124 -8 229 -43 44 -15 82 -28 85 -28 3 -1 37 -11 75
-22 39 -11 102 -26 140 -33 86 -16 148 -39 206 -78 63 -43 72 -56 114 -162 21
-52 55 -126 76 -163 56 -100 54 -106 -39 -112 -91 -7 -204 -16 -237 -21 -148
-20 -434 -25 -640 -10 -238 18 -534 11 -570 -12 -5 -4 -41 -17 -80 -28 -80
-24 -69 -28 -169 61 -75 67 -125 130 -164 208 -31 60 -34 61 -151 39 -41 -7
-90 -11 -107 -7 -28 5 -35 12 -48 53 -8 26 -18 62 -21 80 -3 17 -7 44 -10 60
-2 15 -7 64 -10 110 -7 96 1 106 62 74 58 -31 133 -52 202 -56 54 -3 63 -1 76
17 21 31 19 41 -18 81 -24 25 -34 46 -35 70 -1 20 -21 94 -46 166 l-44 131 34
67 c33 64 52 130 89 305 14 61 21 77 35 77 10 0 24 -10 32 -22z m-2814 -790
c44 -57 121 -156 171 -220 167 -216 286 -305 333 -250 19 21 19 41 2 117 -7
33 -16 76 -19 95 -3 19 -12 63 -20 98 -25 106 -26 119 -11 125 19 8 48 -28 81
-98 65 -142 161 -259 267 -330 48 -31 87 -75 107 -119 2 -4 26 -42 53 -84 40
-59 52 -87 57 -131 13 -108 11 -113 -39 -132 -25 -9 -103 -29 -175 -44 -141
-29 -450 -127 -538 -171 -67 -32 -124 -87 -182 -175 -60 -90 -96 -172 -167
-384 -67 -203 -82 -243 -203 -580 -158 -439 -171 -468 -214 -495 -27 -16 -50
-44 -74 -89 -42 -79 -153 -371 -160 -421 -7 -53 -35 -155 -69 -255 -32 -96
-83 -197 -167 -335 -48 -78 -109 -198 -174 -340 -29 -63 -99 -213 -146 -313
-29 -59 -50 -83 -174 -196 -178 -161 -288 -276 -406 -424 -30 -38 -78 -83
-108 -103 -69 -44 -110 -86 -164 -165 -24 -35 -46 -66 -49 -69 -3 -3 -19 -25
-35 -50 -125 -188 -498 -694 -730 -990 -209 -268 -336 -445 -441 -620 -40 -65
-134 -252 -153 -301 -9 -26 -29 -33 -121 -45 -8 -1 -44 -7 -79 -13 -34 -7 -65
-10 -67 -8 -2 2 2 17 10 33 8 16 44 92 79 169 147 318 342 717 396 810 16 28
41 70 54 95 14 25 33 59 43 77 11 17 37 62 58 100 127 222 458 750 761 1213
571 873 839 1304 1005 1615 29 55 56 105 60 110 11 15 252 496 295 590 198
429 365 836 530 1290 66 181 151 441 160 485 2 9 12 48 23 86 20 69 97 392
106 449 3 17 16 80 30 140 35 155 39 196 27 240 -9 33 -8 42 7 58 17 20 72 57
83 57 4 0 43 -46 87 -102z m529 -2880 c6 -7 15 -29 21 -48 12 -37 13 -41 37
-185 20 -116 40 -187 72 -252 l25 -52 -23 -40 c-12 -23 -26 -41 -29 -41 -4 0
-20 -28 -36 -62 -26 -59 -28 -71 -29 -208 -1 -238 -42 -323 -201 -420 -110
-67 -203 -133 -280 -199 -59 -50 -118 -75 -176 -73 -17 0 -35 5 -40 10 -6 6
10 47 40 108 77 153 125 256 197 424 36 85 77 179 91 208 13 29 24 55 24 57 0
6 110 254 159 357 61 130 62 132 43 159 -9 13 -24 30 -34 37 -10 7 -18 17 -18
22 0 10 95 165 118 193 18 20 26 21 39 5z m-2498 -4714 c59 -33 196 -144 211
-169 9 -17 6 -37 -13 -100 -69 -225 -132 -491 -192 -805 -3 -14 -9 -47 -15
-75 -6 -27 -12 -59 -14 -70 -2 -11 -23 -112 -46 -225 -23 -113 -44 -216 -47
-230 -3 -14 -6 -29 -7 -35 -1 -5 -8 -37 -15 -70 -8 -33 -26 -79 -42 -102 -38
-54 -46 -79 -54 -150 -4 -32 -8 -67 -10 -78 -1 -11 -6 -56 -10 -100 -4 -44 -9
-87 -10 -96 -2 -9 -6 -56 -10 -105 -3 -49 -8 -96 -10 -104 -2 -8 -7 -60 -10
-115 -3 -55 -8 -120 -10 -145 -2 -25 -7 -88 -10 -140 -3 -52 -7 -122 -10 -155
-3 -33 -7 -105 -10 -160 -3 -55 -7 -136 -10 -180 -5 -92 -12 -224 -20 -375 -8
-171 -16 -311 -20 -370 -2 -30 -6 -102 -10 -160 -3 -58 -8 -132 -10 -165 -3
-33 -7 -94 -10 -135 -13 -186 -21 -287 -30 -370 -3 -25 -8 -70 -10 -100 -4
-51 -10 -102 -20 -190 -2 -19 -7 -57 -10 -85 -9 -84 -20 -165 -31 -235 -2 -14
-6 -45 -9 -70 -3 -25 -7 -56 -10 -70 -3 -13 -7 -42 -10 -65 -3 -22 -12 -76
-20 -120 -8 -44 -16 -98 -19 -120 -19 -146 -26 -209 -31 -290 -7 -106 -17
-338 -18 -452 -2 -114 -10 -130 -68 -142 -36 -7 -116 6 -184 32 -87 32 -280
134 -375 197 -30 20 -82 54 -115 76 -33 21 -141 97 -240 168 -455 329 -747
625 -970 981 -159 254 -302 637 -350 935 -4 25 -9 54 -11 65 -9 45 -13 73 -20
130 -3 33 -8 68 -10 79 -21 114 -21 616 1 816 2 19 6 62 10 95 3 33 8 78 10
100 3 22 7 60 9 85 3 25 7 59 10 75 11 70 17 112 21 145 4 33 34 213 39 235 2
6 7 33 11 60 10 56 9 50 18 90 4 17 9 41 11 55 6 32 7 35 51 225 69 298 185
677 292 955 43 112 46 117 120 185 72 67 163 166 228 249 50 64 98 105 140
119 75 26 84 0 29 -82 -37 -54 -48 -69 -97 -124 -48 -56 -89 -127 -89 -154 0
-35 52 -83 91 -83 29 0 84 33 142 85 36 32 112 132 194 253 27 39 55 72 62 72
28 0 53 -22 121 -103 101 -120 236 -252 372 -363 19 -16 37 -31 40 -34 3 -3
32 -27 65 -52 73 -57 154 -95 217 -102 44 -5 50 -3 80 27 18 19 44 62 57 98
13 35 29 78 37 94 7 17 30 75 52 130 22 55 51 123 63 150 13 28 24 52 24 55 3
10 125 298 151 355 7 17 54 127 103 245 50 118 101 241 115 273 l26 57 52 0
c38 0 65 -7 97 -26z m-2307 -7623 c269 -87 383 -116 498 -127 213 -20 242 -45
243 -213 1 -100 -11 -319 -18 -331 -2 -4 -6 -31 -9 -61 -22 -243 -169 -729
-320 -1053 l-33 -70 -57 105 c-62 111 -240 472 -299 604 -165 371 -353 931
-364 1087 -5 65 -4 68 26 99 30 30 35 31 89 26 31 -3 141 -33 244 -66z m1378
-225 c30 -3 66 -8 80 -10 14 -3 59 -9 100 -14 104 -13 145 -32 168 -79 18 -36
35 -106 46 -183 23 -169 40 -324 51 -470 3 -41 8 -95 11 -120 2 -25 6 -66 9
-90 5 -49 18 -162 20 -170 1 -3 5 -39 9 -80 5 -41 10 -82 11 -90 1 -8 6 -55 9
-105 4 -49 9 -106 11 -125 3 -19 7 -78 10 -130 2 -52 7 -131 10 -175 3 -44 7
-114 10 -155 3 -41 7 -97 9 -125 3 -27 7 -88 11 -135 3 -47 8 -101 10 -120 18
-170 24 -543 12 -725 -8 -119 -10 -375 -3 -415 2 -14 7 -59 10 -100 4 -41 8
-84 10 -95 21 -111 15 -165 -19 -165 -16 0 -80 75 -342 402 -170 213 -219 276
-381 492 -331 442 -825 1196 -805 1229 4 7 33 46 64 87 31 41 68 96 82 122 14
25 38 66 53 90 50 78 190 361 237 478 73 181 135 388 152 505 3 23 7 50 9 60
2 11 7 52 10 90 4 39 9 84 11 100 3 17 7 46 10 65 15 109 22 128 48 142 44 24
127 28 257 14z"/>
</g>
</svg>
